<?xml version="1.0" encoding="utf-8"?>
<!-- Generator: Adobe Illustrator 13.0.0, SVG Export Plug-In . SVG Version: 6.00 Build 14948)  -->
<!DOCTYPE svg PUBLIC "-//W3C//DTD SVG 1.1//EN" "http://www.w3.org/Graphics/SVG/1.1/DTD/svg11.dtd">
<svg version="1.1" id="Warstwa_1" xmlns="http://www.w3.org/2000/svg" xmlns:xlink="http://www.w3.org/1999/xlink" x="0px" y="0px"
	 width="142.667px" height="54.284px" viewBox="-4.234 -7.217 142.667 54.284"
	 enable-background="new -4.234 -7.217 142.667 54.284" xml:space="preserve">
<g>
	<path fill="#F4F4F4" d="M-5.347,33.913l0.112-0.474c-0.104-0.089-0.157-0.204-0.157-0.338c0-0.645,0.1-1.073,0.302-1.282
		c0.203-0.211,0.389-0.543,0.563-1.003c0.172-0.457,0.319-0.738,0.439-0.843c0.12-0.104,0.262-0.413,0.425-0.924
		c0.167-0.509,0.54-1.025,1.126-1.552c0.105-0.767,0.442-1.223,1.013-1.375l0.833-1.306c0.075-0.089,0.182-0.152,0.325-0.189
		c0.143-0.036,0.327-0.152,0.551-0.348c0.09-0.345,0.383-0.638,0.878-0.875l0.653-0.653l0.359-0.181
		c0.092-0.061,0.324-0.27,0.699-0.628c0.374-0.36,0.745-0.652,1.113-0.867c0.369-0.218,0.718-0.427,1.046-0.628
		c0.329-0.204,0.53-0.383,0.597-0.542c0.068-0.159,0.183-0.405,0.348-0.742c0.166-0.336,0.314-0.695,0.451-1.067l0.45-0.585
		c0.029-0.029,0.046-0.06,0.046-0.09c0-0.03-0.032-0.112-0.092-0.248v-0.046c0-0.329,0.146-0.671,0.439-1.023
		c0.293-0.352,0.438-0.746,0.438-1.181c0-0.12,0.108-0.341,0.326-0.664c0.218-0.323,0.386-0.513,0.505-0.575l-0.09-0.563
		c0.09-0.24,0.193-0.43,0.315-0.576c0.12-0.141,0.24-0.482,0.36-1.023c0.166-0.375,0.324-0.563,0.474-0.563
		c0.121,0,0.218,0.075,0.292,0.224c0.076,0.15,0.129,0.224,0.158,0.224c0.029-0.029,0.045-0.06,0.045-0.089
		c0-0.18-0.074-0.304-0.223-0.372c-0.15-0.067-0.225-0.152-0.225-0.259c0-0.375,0.055-0.653,0.158-0.832
		c0.104-0.18,0.165-0.334,0.179-0.46c0.018-0.127,0.073-0.237,0.171-0.326c0.098-0.09,0.154-0.188,0.169-0.293
		s0.038-0.226,0.067-0.36V8.195c0-0.15,0.098-0.355,0.293-0.619c0.196-0.263,0.307-0.424,0.34-0.483
		c0.028-0.061,0.059-0.104,0.09-0.136l0.203-0.045l0.045-0.136c-0.226-0.03-0.338-0.157-0.338-0.381c0-0.24,0.171-0.421,0.516-0.542
		c-0.09-0.194-0.134-0.352-0.134-0.472c0-0.39,0.196-0.584,0.583-0.584h0.158l0.045-0.113c-0.134-0.15-0.202-0.284-0.202-0.404
		c0-0.525,0.126-0.787,0.382-0.787c0.031,0,0.075,0.015,0.136,0.045l0.132,0.045V3.448c-0.178-0.166-0.27-0.316-0.27-0.45
		l0.182-0.518l-0.046-0.359c0-0.15,0.08-0.267,0.249-0.35c0.167-0.083,0.249-0.152,0.249-0.214l0.065-0.226
		c0.028-0.06,0.046-0.247,0.046-0.563c0.075-0.074,0.136-0.165,0.178-0.27V0.365l-0.048-0.473c0-0.029,0.037-0.112,0.114-0.247
		c0.075-0.136,0.112-0.233,0.112-0.293c0-1.05-0.279-1.784-0.833-2.205c-0.178-0.029-0.327-0.097-0.449-0.202
		c-0.027,0-0.067-0.016-0.111-0.045h-0.767l-0.695,0.338l-0.403-0.045C9.921-2.597,9.808-2.492,9.778-2.492L9.466-2.539
		c-0.06,0-0.144,0.083-0.258,0.247c-0.114,0.166-0.25,0.286-0.418,0.36C8.627-1.856,8.452-1.711,8.265-1.493
		C8.077-1.274,7.891-1.129,7.716-1.055C7.537-0.98,7.389-0.885,7.28-0.774C7.168-0.661,6.932-0.485,6.576-0.245
		c-0.15,0.404-0.441,0.682-0.875,0.832C5.641,0.647,5.58,0.818,5.523,1.104C5.118,1.448,4.796,1.817,4.558,2.206L2.766,4.882
		C2.706,4.958,2.654,5.131,2.61,5.4S2.511,5.835,2.452,5.896L2.071,6.3v0.091l0.045,0.225c-0.333,0.3-0.498,0.487-0.498,0.563
		c0,0.12,0.016,0.225,0.046,0.314v0.249c0,0.015-0.091,0.36-0.274,1.034l-0.248,0.99c-0.06,0.12-0.088,0.3-0.088,0.54l-0.228,1.396
		c0,0.016,0.053,0.101,0.158,0.259c0.105,0.158,0.158,0.265,0.158,0.325l-0.046,0.564l0.046,0.832l-0.134,0.496
		c0.121,0.165,0.278,0.457,0.475,0.877l0.182,0.293h0.046l-0.046,0.584c0.272,0.194,0.476,0.476,0.62,0.844
		c0.143,0.368,0.369,0.596,0.676,0.687c0.308,0.091,0.567,0.372,0.774,0.844c0.21,0.472,0.318,0.897,0.318,1.271
		c0,0.464-0.107,0.698-0.318,0.698c-0.542,0-0.859-0.062-0.956-0.178c-0.096-0.122-0.289-0.429-0.573-0.924l-0.588-1.487
		L0.94,16.491c-0.134-0.225-0.225-0.443-0.272-0.652c-0.046-0.211-0.132-0.376-0.26-0.497c-0.129-0.12-0.192-0.218-0.192-0.293
		l0.045-0.359L0.17,14.218c0-0.15-0.046-0.314-0.137-0.496c-0.091-0.18-0.143-0.401-0.158-0.665
		c-0.015-0.26-0.079-0.471-0.191-0.628c-0.112-0.157-0.169-0.372-0.169-0.64c0-0.12-0.045-0.308-0.136-0.563
		c0.03-0.15,0.046-0.443,0.046-0.877L-0.71,9.673v-0.09l-0.046-0.292V9.2c0-1.17,0.142-2.227,0.427-3.173
		C-0.3,5.938-0.284,5.766-0.284,5.51l0.45-1.552l0.336-0.742c0.27-0.661,0.52-1.133,0.752-1.419C1.486,1.513,1.631,1.277,1.692,1.09
		c0.061-0.188,0.253-0.357,0.583-0.507c0.286-0.526,0.457-0.818,0.517-0.877L3.064-0.34c0.208-0.45,0.53-0.711,0.966-0.787
		c0-0.36,0.352-0.698,1.056-1.013C5.34-2.29,5.534-2.454,5.669-2.635c0.136-0.18,0.36-0.27,0.675-0.27L8.77-3.828
		c0.047-0.03,0.173,0.06,0.379,0.27h0.044c0.09,0,0.142-0.051,0.16-0.157C9.369-3.82,9.428-3.898,9.532-3.951
		C9.635-4.003,9.735-4.09,9.825-4.209h0.091l0.337,0.09c0.613,0,1.055-0.046,1.324-0.136h0.36l0.202-0.045
		c1.125,0,1.827,0.232,2.113,0.698l1.371,1.193l0.247,0.741l0.137,1.508v0.517l-0.204,0.36c0.043,0.09,0.066,0.157,0.066,0.202
		l-0.337,2.858l-0.426,1.327c-0.317,1.08-0.575,1.659-0.777,1.732c-0.202,0.075-0.303,0.128-0.303,0.158
		c0.119,0.164,0.18,0.3,0.18,0.404l-0.091,0.293v0.36l-0.316,1.08c-0.09,0.376-0.292,0.661-0.609,0.855
		c-0.06,0-0.09,0.029-0.09,0.09l0.181,0.225v0.091c0,0.076-0.027,0.218-0.091,0.427c-0.06,0.208-0.099,0.385-0.11,0.529
		c-0.014,0.143-0.096,0.244-0.237,0.303c-0.142,0.06-0.226,0.135-0.26,0.226v0.607c0,0.167-0.139,0.361-0.416,0.586
		c-0.277,0.225-0.415,0.367-0.415,0.426l0.044,0.541c-0.088,0.15-0.178,0.397-0.269,0.742c-0.09,0.345-0.199,0.572-0.326,0.675
		c-0.127,0.105-0.198,0.249-0.215,0.428c-0.017,0.181-0.135,0.432-0.36,0.754c-0.225,0.323-0.339,0.537-0.339,0.641
		c0,0.09,0.029,0.136,0.091,0.136c0.149,0,0.303-0.116,0.459-0.349c0.157-0.232,0.476-0.454,0.955-0.665l0.742-0.607
		c0.122-0.12,0.304-0.224,0.551-0.314c0.249-0.091,0.563-0.344,0.945-0.765c0.383-0.42,0.792-0.69,1.228-0.81l0.663-0.45
		c0.182-0.105,0.335-0.157,0.456-0.157c0.32,0,0.48,0.157,0.48,0.472c0,0.12-0.049,0.296-0.146,0.528
		c-0.097,0.233-0.157,0.45-0.181,0.654c-0.022,0.202-0.22,0.423-0.599,0.664l-0.293,0.27l-0.45-0.046
		c-0.119,0.062-0.25,0.214-0.381,0.46c-0.136,0.249-0.273,0.373-0.404,0.373c-0.122,0-0.259,0.045-0.408,0.136l-0.292,0.089h-0.227
		c-0.061,0.047-0.143,0.174-0.248,0.382c-0.104,0.208-0.256,0.338-0.45,0.382l-1.511,0.81h-0.136
		c-0.315,0.314-0.517,0.498-0.607,0.542h-0.403c-0.691,0.495-1.081,0.801-1.173,0.922c0,0.494-0.148,0.831-0.45,1.014H8.456
		l0.043,0.519c0,0.062-0.126,0.211-0.382,0.45c-0.031,0-0.046,0.052-0.046,0.158l0.046,0.36v0.044c0,0.063-0.122,0.267-0.36,0.62
		c-0.24,0.354-0.39,0.604-0.451,0.755c0.028,0.075,0.046,0.157,0.046,0.248c0,0.239-0.175,0.433-0.521,0.583
		c0,0.12-0.222,0.619-0.663,1.496c-0.444,0.877-0.762,1.443-0.958,1.7l-2.3,4.321c-0.09,0.091-0.211,0.149-0.362,0.179
		c-0.105,0.256-0.278,0.443-0.519,0.563c0,0.465-0.179,0.773-0.542,0.924c-0.134,0.359-0.323,0.651-0.563,0.877
		c-0.092,0.569-0.237,0.88-0.439,0.933c-0.204,0.053-0.326,0.176-0.373,0.372c-0.047,0.195-0.219,0.345-0.52,0.45
		c-0.104,0.511-0.336,0.78-0.7,0.812c-0.12,0.136-0.213,0.307-0.279,0.519c-0.068,0.21-0.264,0.393-0.586,0.551
		c-0.324,0.158-0.591,0.334-0.799,0.528c-0.21,0.195-0.457,0.361-0.742,0.495c-0.671-0.047-1.222-0.437-1.651-1.173
		c-0.425-0.735-0.641-1.44-0.641-2.117l0.092-0.739l-0.043-0.677L-5.347,33.913z M-3.457,35.058l0.115,0.27l0.021,0.361
		c0.031,0.105,0.067,0.157,0.113,0.157c0.15,0,0.332-0.188,0.542-0.563l0.563-0.584c0.24-0.256,0.425-0.604,0.551-1.048
		c0.127-0.442,0.387-0.693,0.778-0.752c0.061-0.616,0.444-1.351,1.152-2.206c0.06-0.103,0.128-0.279,0.203-0.528
		c0.076-0.248,0.188-0.46,0.338-0.641c0.15-0.179,0.238-0.34,0.26-0.483c0.026-0.141,0.192-0.391,0.507-0.754
		c0.046-0.375,0.181-0.766,0.407-1.171c0.228-0.407,0.46-0.839,0.7-1.307l0.788-1.575l1.375-1.98c0-0.09-0.023-0.135-0.068-0.135
		L4.03,22.57c-0.3,0.12-0.505,0.28-0.619,0.483c-0.116,0.202-0.2,0.303-0.259,0.303c-0.197,0-0.376,0.156-0.542,0.463
		c-0.167,0.306-0.34,0.54-0.521,0.708c-0.18,0.167-0.316,0.275-0.407,0.327c-0.091,0.051-0.136,0.094-0.136,0.124
		c0,0.025-0.053,0.178-0.158,0.45c-0.15,0.121-0.329,0.32-0.542,0.596c-0.211,0.275-0.373,0.45-0.483,0.52
		c-0.116,0.068-0.246,0.298-0.396,0.685l-0.361,0.225c-0.136,0.39-0.265,0.698-0.385,0.925l-0.316,0.045
		c-0.107,0.179-0.167,0.355-0.18,0.525c-0.015,0.176-0.046,0.264-0.091,0.264l-0.244,0.088c-0.06,0.076-0.164,0.278-0.314,0.609
		l-0.18,0.137c-0.061,0.061-0.088,0.26-0.088,0.606c0,0.15-0.074,0.315-0.217,0.495c-0.143,0.182-0.273,0.459-0.394,0.833
		l-0.268,0.739c0,0.212-0.061,0.45-0.182,0.722l-0.245,0.157c0,0.123-0.046,0.459-0.135,1.014
		C-3.562,34.742-3.501,34.894-3.457,35.058z"/>
	<path fill="#F4F4F4" d="M16.177,16.36l0.315,0.136c0.032-0.255,0.176-0.473,0.43-0.654h0.181c0.151,0,0.346-0.202,0.586-0.607
		l0.382-0.225c0.062,0.031,0.15,0.044,0.272,0.044c0.09,0,0.178-0.059,0.262-0.179c0.083-0.121,0.289-0.353,0.62-0.698h0.091
		c0.091,0,0.199-0.069,0.326-0.203c0.129-0.136,0.298-0.203,0.508-0.203l0.771-0.203c0.24-0.061,0.375-0.09,0.404-0.09
		c0.135-0.044,0.464,0.229,0.989,0.822c0.525,0.593,0.787,1.166,0.787,1.721c0,0.314-0.167,0.502-0.495,0.563l-0.114,0.09v0.45
		l-0.381,0.832c-0.103,0.225-0.232,0.368-0.382,0.426c-0.136,0.24-0.233,0.406-0.294,0.497l-0.314,0.046l-0.136,0.136v0.563
		c-0.135,0.179-0.328,0.575-0.582,1.178c-0.258,0.604-0.383,0.994-0.383,1.158c0,0.285,0.061,0.429,0.182,0.429
		c0.088,0,0.178-0.038,0.267-0.114c0.091-0.076,0.215-0.162,0.373-0.261c0.158-0.099,0.275-0.197,0.347-0.303
		c0.076-0.103,0.233-0.199,0.475-0.28c0.242-0.08,0.465-0.235,0.675-0.459c0.209-0.226,0.36-0.376,0.45-0.454
		c0.089-0.075,0.188-0.176,0.294-0.3c0.104-0.126,0.174-0.191,0.203-0.191c0.09,0,0.232-0.029,0.427-0.09
		c0.025-0.166,0.06-0.284,0.09-0.36l0.537-0.271l1.304-1.172l0.18-0.225c0.24-0.061,0.391-0.105,0.449-0.136
		c0.119-0.404,0.323-0.698,0.608-0.876c0-0.062,0.076-0.105,0.226-0.136c0.12-0.24,0.273-0.431,0.459-0.576
		c0.187-0.142,0.34-0.318,0.459-0.528l0.518-0.427c0.15-0.06,0.255-0.15,0.316-0.27c0.778-0.69,1.262-1.084,1.451-1.181
		c0.185-0.097,0.492-0.146,0.911-0.146c0.419,0,0.759,0.163,1.022,0.484c0.264,0.324,0.547,0.566,0.854,0.731
		c0.311,0.165,0.463,0.48,0.463,0.944c0,0.435-0.337,1.268-1.015,2.499c-0.433,1.291-0.66,2.082-0.675,2.375
		c-0.015,0.292-0.083,0.459-0.203,0.506c-0.122,0.044-0.18,0.098-0.18,0.157v0.091c0,0.359,0.06,0.539,0.18,0.539
		c0.09,0,0.214-0.075,0.372-0.226c0.157-0.149,0.477-0.315,0.955-0.494l0.202,0.043c0.434-0.661,0.725-1.016,0.875-1.067
		c0.15-0.054,0.3-0.187,0.449-0.405c0.149-0.218,0.333-0.334,0.548-0.35c0.218-0.014,0.356-0.051,0.416-0.11
		c0.019-0.363,0.31-0.769,0.886-1.219c0.574-0.45,0.907-0.675,0.999-0.675c0.149,0,0.267,0.113,0.359,0.338
		c0.091,0.226,0.182,0.379,0.28,0.461c0.097,0.08,0.146,0.152,0.146,0.213v0.404c0,0.196-0.097,0.325-0.293,0.381
		c-0.15,0.331-0.286,0.526-0.403,0.583l-0.402-0.04c-0.076,0.091-0.141,0.176-0.192,0.248c-0.051,0.076-0.084,0.105-0.1,0.092
		c-0.122,0.029-0.333,0.227-0.641,0.595c-0.306,0.368-0.58,0.67-0.819,0.912l-0.09,0.135c-0.122,0.09-0.233,0.15-0.337,0.18
		l-0.403,0.337c-0.15-0.089-0.24-0.134-0.271-0.134c-0.028,0-0.094,0.061-0.188,0.179c-0.1,0.122-0.293,0.274-0.585,0.462
		c-0.291,0.188-0.512,0.4-0.66,0.642l-0.36,0.358l-0.474,0.069c-0.045,0-0.119,0.067-0.225,0.203l-0.403,0.518
		c-0.196,0.256-0.5,0.381-0.922,0.381c-0.09,0-0.204-0.078-0.347-0.235c-0.142-0.158-0.275-0.293-0.404-0.405
		c-0.125-0.112-0.412-0.451-0.853-1.014c-0.442-0.563-0.662-0.861-0.662-0.889l0.136-0.786l-0.046-0.542
		c0-0.105,0.07-0.265,0.215-0.484c0.143-0.219,0.213-0.332,0.213-0.347l-0.045-0.875c0.03-0.029,0.063-0.076,0.091-0.136
		l0.314-0.518c-0.027-0.15-0.042-0.316-0.042-0.497l0.089-0.743c-0.27,0.121-0.506,0.366-0.709,0.732
		c-0.203,0.367-0.467,0.55-0.798,0.55c-0.284,0.511-0.504,0.759-0.654,0.742c-0.06,0.06-0.104,0.123-0.136,0.179l-0.314,0.18
		l-0.378-0.046l-0.137,0.563c-0.331,0.181-0.542,0.34-0.641,0.485c-0.097,0.141-0.25,0.288-0.459,0.438l-0.383,0.359h-0.36
		c-0.06,0.406-0.293,0.742-0.697,1.014l-0.182,0.225l-0.404-0.044c-0.15,0.478-0.336,0.775-0.563,0.876
		c-0.255,0-0.604,0.232-1.046,0.699c-0.444,0.465-0.754,0.698-0.937,0.698c-1.304,0-2.362-0.82-3.173-2.454
		c-0.031-0.061-0.1-0.174-0.213-0.339c-0.117-0.165-0.172-0.421-0.172-0.765c0-0.583,0.079-0.98,0.236-1.193
		c0.157-0.208,0.359-0.603,0.608-1.178c0.249-0.578,0.43-0.829,0.55-0.753c0.029-0.06,0.047-0.15,0.047-0.27
		c0.24-0.285,0.36-0.501,0.36-0.652c0-0.061-0.027-0.091-0.092-0.091c-0.027,0-0.119,0.044-0.268,0.136l-0.316,0.135
		c-0.137,0.029-0.234,0.09-0.295,0.18c-0.06,0.09-0.169,0.176-0.319,0.259c-0.15,0.082-0.271,0.153-0.362,0.213h-0.066
		c-0.091-0.089-0.15-0.136-0.18-0.136c-0.093,0.241-0.167,0.389-0.225,0.45l-0.273,0.044c-0.331,0.344-0.543,0.519-0.629,0.519
		c-0.063,0-0.197-0.055-0.408-0.158c-0.213-0.105-0.32-0.208-0.32-0.314l0.158-0.879v-0.406c0-0.028,0.063-0.089,0.181-0.179
		c0.033,0,0.152-0.161,0.363-0.484C15.644,16.524,15.889,16.36,16.177,16.36z"/>
	<path fill="#F4F4F4" d="M40.612,14.74l0.315-0.563c0.091-0.136,0.206-0.274,0.349-0.416c0.143-0.142,0.298-0.51,0.46-1.103
		c0.166-0.591,0.351-1,0.552-1.225c0.202-0.226,0.5-0.338,0.889-0.338c0.227,0,0.524,0.108,0.891,0.327
		c0.367,0.218,0.726,0.874,1.078,1.97c0.356,1.095,0.53,1.866,0.53,2.316c0,0.18,0.054,0.41,0.157,0.687
		c0.105,0.278,0.176,0.492,0.203,0.642c-0.12,0.255-0.178,0.397-0.178,0.428l0.044,0.921l-0.271,0.742v0.54
		c-0.178,0.3-0.269,0.486-0.269,0.564c0,0.09,0.026,0.179,0.09,0.27c0.704-0.3,1.129-0.542,1.278-0.731
		c0.15-0.187,0.295-0.302,0.439-0.347c0.142-0.046,0.377-0.24,0.708-0.584l0.426-0.224c0.15-0.181,0.275-0.341,0.38-0.485
		c0.103-0.142,0.228-0.242,0.373-0.303c0.142-0.06,0.311-0.166,0.505-0.315c0.194-0.15,0.477-0.322,0.853-0.517l0.225-0.271
		c0.224-0.255,0.49-0.457,0.798-0.607c0.305-0.15,0.476-0.226,0.504-0.226c0.103,0,0.216,0.14,0.326,0.417
		c0.113,0.278,0.17,0.551,0.17,0.822c0,0.255-0.146,0.506-0.437,0.753c-0.294,0.247-0.492,0.431-0.597,0.551
		c-0.105,0.12-0.344,0.225-0.721,0.314c-0.029,0.018-0.275,0.325-0.742,0.925l-0.45,0.271l-0.225,0.292
		c-0.029,0.062-0.231,0.123-0.606,0.18c-0.018,0-0.049,0.076-0.1,0.227c-0.053,0.15-0.217,0.255-0.483,0.316
		c-0.54,0.494-0.817,0.772-0.832,0.829l-0.472,0.091c-0.09,0.283-0.164,0.457-0.226,0.519c-0.361,0.088-0.562,0.238-0.606,0.45
		c-0.044,0.028-0.12,0.062-0.224,0.088l-0.092,0.069c-0.344,0.271-0.683,0.434-1.012,0.497l-0.517,0.134l-0.179,0.271
		c0,0.075-0.183,0.174-0.551,0.293c-0.367,0.119-0.641,0.27-0.823,0.45l-0.378,0.293c-0.464,0.179-0.757,0.342-0.876,0.494h-0.314
		c-0.21,0-0.539,0.155-0.989,0.462c-0.45,0.31-0.81,0.462-1.078,0.462c-0.87,0-1.465-0.108-1.785-0.326
		c-0.321-0.22-0.588-0.487-0.798-0.81c-0.209-0.324-0.4-0.58-0.574-0.777c-0.172-0.194-0.26-0.352-0.26-0.473
		c0-0.105,0.074-0.211,0.215-0.314c0.142-0.105,0.298-0.321,0.461-0.643c0.164-0.323,0.584-0.527,1.26-0.621
		c0.03,0,0.141-0.044,0.327-0.136c0.184-0.089,0.339-0.134,0.46-0.134c0.15,0,0.338,0.134,0.562,0.406
		c0,0.027,0.03,0.044,0.091,0.044l0.36-0.044c0.164,0.119,0.278,0.178,0.339,0.178c0.358,0,0.74-0.178,1.145-0.539l0.092-0.045
		h0.178c0.046,0,0.122-0.126,0.227-0.382l0.379-0.784l0.788-1.016v-0.225c0-0.044,0.046-0.178,0.136-0.405v-0.337
		c0-0.134,0.089-0.221,0.27-0.26c0.181-0.037,0.27-0.131,0.27-0.281l-0.044-0.181c-0.122-0.164-0.18-0.293-0.18-0.381l0.225-0.45
		l-0.043-0.477l0.088-0.179c-0.061-0.21-0.088-0.33-0.088-0.36l0.088-0.563c0-0.017-0.039-0.157-0.123-0.427
		c-0.083-0.27-0.146-0.405-0.191-0.405c-0.091,0-0.375,0.232-0.856,0.698c-0.48,0.465-0.767,0.794-0.858,0.989
		c-0.09,0.194-0.281,0.373-0.575,0.53c-0.293,0.157-0.492,0.334-0.598,0.529c-0.105,0.195-0.231,0.307-0.381,0.338l-1.507,1.215
		l-1.644,1.215c-0.122,0.137-0.196,0.203-0.226,0.203c-0.554,0-0.831-0.306-0.831-0.924c0-0.191,0.113-0.545,0.336-1.06
		c0.103-0.059,0.183-0.101,0.236-0.133c0.054-0.031,0.08-0.053,0.08-0.068c0-0.013-0.018-0.021-0.046-0.021l0.135,0.091h0.044
		c0.556-0.375,0.919-0.594,1.082-0.654c0.165-0.061,0.315-0.225,0.45-0.496l0.947-0.676c0.24-0.179,0.607-0.51,1.102-0.989
		C40.161,15.319,40.475,14.964,40.612,14.74z"/>
	<path fill="#F4F4F4" d="M55.917,5.156l0.314-0.091l0.226-0.225h0.046l0.203,0.09h0.046c0.359,0,0.678-0.071,0.959-0.213
		c0.278-0.143,0.514-0.244,0.705-0.304c0.189-0.06,0.305-0.104,0.352-0.136c0.045-0.03,0.084-0.046,0.112-0.046l0.364,0.046
		c0.122,0,0.281-0.214,0.484-0.641c0.201-0.428,0.429-0.739,0.686-0.935c0.255-0.196,0.508-0.563,0.764-1.102
		c0.06-0.076,0.128-0.191,0.203-0.348c0.076-0.157,0.135-0.236,0.179-0.236c0.226,0,0.405-0.143,0.539-0.427
		c0.45-0.525,0.819-0.788,1.101-0.788c0.376,0,0.637,0.36,0.786,1.08l0.227,0.856c0,0.015-0.039,0.124-0.114,0.326
		c-0.074,0.203-0.109,0.404-0.102,0.607c0.01,0.203,0,0.338-0.021,0.405s-0.032,0.146-0.032,0.235c0,0.12,0.125,0.181,0.381,0.181
		c0.09,0,0.254-0.062,0.495-0.181l0.137-0.045c0.149,0.091,0.273,0.135,0.379,0.135c0.029,0,0.242-0.076,0.642-0.226
		c0.397-0.15,0.649-0.231,0.753-0.249c0.104-0.014,0.286-0.074,0.539-0.18h0.271l0.18,0.067c0.061,0,0.184-0.064,0.372-0.191
		c0.189-0.127,0.542-0.207,1.071-0.236l0.313-0.136h0.092c0.494,0,0.74,0.218,0.74,0.652c0,0.09-0.072,0.249-0.216,0.473
		c-0.143,0.226-0.26,0.48-0.349,0.766l-1.032,1.304c-0.344,0.45-0.69,0.676-1.035,0.676c-0.06,0-0.247-0.202-0.563-0.607
		c0-0.031-0.029-0.046-0.09-0.046c-0.15,0-0.308,0.03-0.474,0.09c-0.167,0.061-0.3,0.091-0.407,0.091
		c-0.043,0-0.439,0.112-1.189,0.337l-0.54,0.09c-0.061,0-0.202,0.03-0.427,0.09l-1.149,0.226c-0.388,0.194-0.697,0.563-0.922,1.102
		c0,0.028-0.076,0.098-0.227,0.201l-1.014,1.846c-0.331,0.09-0.548,0.284-0.652,0.584l-0.092,0.136
		c-0.165,0.03-0.315,0.123-0.45,0.281c-0.137,0.157-0.264,0.281-0.384,0.372l-0.405,0.607c-0.166,0.21-0.33,0.439-0.497,0.686
		c-0.165,0.248-0.284,0.511-0.362,0.787c-0.072,0.278-0.134,0.439-0.178,0.484c-0.046,0.044-0.069,0.128-0.069,0.248l-0.065,0.18
		c-0.182,0.181-0.272,0.382-0.272,0.608l0.089,0.36c-0.209,0.719-0.314,1.102-0.314,1.147c0,0.029,0.015,0.113,0.045,0.249v0.135
		c0,0.329-0.12,0.743-0.359,1.237l0.045,0.359l-0.135,1.014c0,0.135,0.045,0.381,0.135,0.739c-0.063,0.062-0.091,0.107-0.091,0.136
		c0,0.42,0.221,0.881,0.663,1.383c0.443,0.501,0.665,1.286,0.665,2.351c0,0.092-0.022,0.223-0.067,0.394
		c-0.045,0.174-0.076,0.36-0.092,0.563c-0.016,0.203-0.131,0.401-0.349,0.597c-0.217,0.194-0.4,0.293-0.552,0.293
		c-0.796,0-1.391-0.578-1.778-1.733c-0.39-1.155-0.586-1.898-0.586-2.226l0.046-0.876l-0.136-0.451l0.136-1.98l-0.09-0.473
		l0.518-1.935v-0.698c0-0.031,0.104-0.15,0.316-0.361c0-0.03-0.029-0.044-0.09-0.044c-0.091,0-0.211,0.09-0.36,0.271
		c-0.151,0.179-0.338,0.352-0.566,0.517l-0.178,0.314c-0.03-0.029-0.091-0.06-0.182-0.089c-0.075,0.029-0.322,0.381-0.744,1.058
		c-0.315,0.046-0.565,0.224-0.744,0.54c-0.179,0.315-0.425,0.473-0.741,0.473l-0.09,0.045c-0.063,0.436-0.272,0.653-0.632,0.653
		l-0.09,0.044c-0.225,0.51-0.459,0.757-0.7,0.742c-0.15,0.45-0.517,0.757-1.104,0.924c-0.09,0.18-0.222,0.316-0.394,0.405
		c-0.173,0.09-0.297,0.175-0.373,0.249c-0.076,0.074-0.142,0.112-0.202,0.112c-0.197,0-0.295-0.211-0.295-0.629
		c0-0.121,0.051-0.25,0.146-0.391c0.099-0.142,0.148-0.245,0.148-0.304c0-0.028-0.076-0.122-0.226-0.272
		c0-0.464,0.122-0.754,0.362-0.875c0.238-0.121,0.419-0.293,0.538-0.517c0.076-0.18,0.226-0.307,0.45-0.382
		c0.227-0.075,0.339-0.173,0.339-0.293c0-0.104,0.196-0.314,0.585-0.63c0.39-0.314,0.675-0.588,0.856-0.82
		c0.181-0.232,0.331-0.35,0.45-0.35l0.09-0.089c0.028-0.376,0.172-0.563,0.426-0.563l0.226-0.135l0.045-0.181l0.135-0.09h0.181
		l0.112-0.09c0.029-0.375,0.207-0.667,0.53-0.876c0.322-0.211,0.911-0.799,1.767-1.767c0.857-0.968,1.339-1.586,1.442-1.856
		c0.104-0.271,0.298-0.634,0.574-1.092c0.278-0.457,0.432-0.888,0.462-1.294c-0.028-0.061-0.076-0.12-0.136-0.18l-0.967,0.473
		c0-0.045-0.15-0.113-0.451-0.203c-0.226,0.135-0.389,0.27-0.495,0.405c-0.105,0.136-0.188,0.202-0.249,0.202l-0.315-0.045
		l-0.989,0.113c-0.885,0.076-1.553,0.255-2.002,0.541l-0.925,0.27H50.78c-0.12,0-0.3,0.076-0.541,0.226l-0.517-0.046
		c-0.48,0.256-0.833,0.382-1.06,0.382c-0.029,0-0.122-0.015-0.271-0.046l-2.295,0.63c-0.179,0.06-0.583,0.368-1.216,0.923
		l-0.178,0.046c-0.15,0-0.327-0.169-0.529-0.505c-0.203-0.337-0.304-0.642-0.304-0.912c0-1.484,1.275-2.347,3.825-2.587l0.924-0.36
		h0.046l0.247,0.09h0.091c0.088,0,0.23-0.056,0.424-0.169c0.195-0.112,0.63-0.251,1.304-0.417l0.925-0.248l0.292,0.046
		c0.15,0,0.32-0.061,0.507-0.18c0.185-0.12,0.471-0.207,0.855-0.259c0.379-0.053,0.649-0.108,0.799-0.169l0.359-0.09
		c0.061,0,0.183-0.053,0.372-0.157c0.188-0.104,0.431-0.157,0.731-0.157C55.625,5.065,55.737,5.096,55.917,5.156z"/>
	<path fill="#F4F4F4" d="M78.982,20.029v0.248l0.044,0.178v0.091c0,0.029-0.029,0.202-0.089,0.519
		c-0.225,0.238-0.353,0.575-0.381,1.013l-0.271,0.405c0,0.21-0.071,0.376-0.216,0.494c-0.142,0.123-0.265,0.362-0.371,0.724
		c-0.109,0.358-0.232,0.74-0.383,1.146l-0.518,1.281c0,0.063,0.028,0.089,0.089,0.089c0.03,0,0.079-0.015,0.146-0.043
		c0.07-0.03,0.133-0.046,0.191-0.046c0.061,0,0.12,0.016,0.182,0.046c0.06,0.028,0.104,0.043,0.132,0.043
		c0.03,0,0.141-0.052,0.328-0.158c0.188-0.105,0.401-0.175,0.644-0.201l0.832-0.204c0.181-0.059,0.547-0.09,1.105-0.09l0.699-0.045
		c0.557,0,1.117,0.14,1.68,0.426c0.563,0.284,0.916,0.584,1.059,0.899c0.143,0.317,0.217,0.826,0.217,1.532
		c0,0.553-0.186,0.83-0.564,0.83c-0.225,0-0.515-0.143-0.868-0.426c-0.351-0.284-0.595-0.645-0.731-1.078
		c-0.133-0.436-0.353-0.654-0.654-0.654l-0.563-0.18l-0.314,0.088h-0.087c-0.062,0-0.194-0.043-0.408-0.135h-0.066L79.17,27h-0.925
		l-0.427,0.227c-0.211,0.06-0.439,0.103-0.687,0.133c-0.249,0.029-0.469,0.093-0.666,0.182c-0.194,0.088-0.293,0.175-0.293,0.246
		c0,0.467-0.201,0.863-0.606,1.192c-0.15,0.24-0.232,0.43-0.249,0.575c-0.017,0.141-0.101,0.3-0.26,0.471
		c-0.159,0.174-0.328,0.438-0.507,0.8l-0.18,0.316c-0.062,0.088-0.091,0.164-0.091,0.224c0,0.029,0.018,0.09,0.046,0.18v0.201
		c0,0.423-0.248,0.819-0.744,1.193v0.224c0,0.122-0.119,0.294-0.359,0.519l0.09,0.451c0,0.063-0.083,0.184-0.247,0.374
		c-0.167,0.186-0.304,0.396-0.419,0.628s-0.325,0.438-0.641,0.621v0.134l0.134,0.27c0.046,0,0.069,0.03,0.069,0.092
		c0,0.105-0.113,0.263-0.339,0.472c-0.062,0.24-0.165,0.475-0.315,0.699l-0.926,1.236c-0.146,0.211-0.222,0.375-0.222,0.496
		l-0.159,0.425c-0.166,0.135-0.28,0.274-0.348,0.419c-0.068,0.141-0.269,0.422-0.597,0.842c-0.331,0.422-0.548,0.629-0.655,0.629
		c0.09,0.18,0.135,0.283,0.135,0.315c0,0.18-0.119,0.396-0.359,0.654c-0.391,0-0.584,0.081-0.584,0.246l0.113,0.452
		c0,0.061-0.082,0.147-0.249,0.27c-0.168,0.121-0.3,0.18-0.405,0.18h-0.313l0.091,0.404c-0.06,0.168-0.149,0.277-0.27,0.338
		c-0.122,0.061-0.321,0.237-0.597,0.526c-0.277,0.296-0.477,0.472-0.597,0.53l-0.292,0.18l-0.879,0.092
		c-0.237-0.076-0.701-0.326-1.381-0.743c-0.684-0.419-1.076-0.813-1.174-1.18c-0.098-0.367-0.146-0.89-0.146-1.564
		c0-0.075,0.076-0.204,0.227-0.38l0.046-0.18v-0.428c0-0.025,0.075-0.295,0.224-0.798c0.15-0.5,0.277-0.779,0.382-0.828
		c0.104-0.054,0.27-0.35,0.496-0.891c0.225-0.54,0.397-0.894,0.517-1.058l2.074-3.037c0-0.195,0.028-0.323,0.088-0.382h0.137
		c0.122,0,0.203-0.042,0.249-0.124c0.044-0.084,0.111-0.176,0.202-0.281c0-0.286,0.132-0.519,0.395-0.699
		c0.261-0.18,0.449-0.379,0.563-0.595c0.114-0.218,0.243-0.417,0.395-0.596l0.046-0.136c0.06-0.061,0.189-0.13,0.394-0.216
		c0.203-0.081,0.318-0.196,0.348-0.347l0.767-0.743c0.076-0.061,0.194-0.132,0.363-0.225c0.165-0.089,0.335-0.256,0.519-0.495
		l0.156-0.067h0.135l0.093-0.045c0.179-0.389,0.363-0.6,0.551-0.628c0.186-0.029,0.312-0.075,0.372-0.136
		c-0.016-0.464,0.249-0.698,0.788-0.698c0.121,0,0.211-0.028,0.27-0.091l0.54-0.425c0.075-0.062,0.219-0.352,0.428-0.877v-0.045
		l0.404,0.113l0.046-0.113l-0.09-0.494c0.044-0.061,0.134-0.268,0.27-0.621c0.135-0.352,0.261-0.558,0.382-0.622
		c0.119-0.06,0.178-0.126,0.178-0.203v-0.269l-0.044-0.271l0.09-0.179v-0.296l0.045-0.088c0.076-0.075,0.165-0.353,0.271-0.832
		c0.062-0.061,0.14-0.12,0.249-0.178l1.012-2.859c0.027-0.076,0.075-0.27,0.135-0.584l0.18-0.247
		c0.181-0.479,0.271-0.789,0.271-0.925c0-0.059-0.028-0.089-0.089-0.089c-0.064,0-0.195,0.087-0.405,0.26
		c-0.215,0.173-0.37,0.259-0.475,0.259l-0.36-0.09h-0.092c-0.09,0-0.214,0.076-0.371,0.227c-0.159,0.15-0.253,0.224-0.281,0.224
		l-0.271,0.044c-0.148,0.255-0.284,0.397-0.404,0.427l-0.567,0.36h-0.043l-0.315-0.224c0-0.03-0.037-0.044-0.112-0.044
		c-0.06,0-0.148,0.177-0.271,0.537l-0.7,0.337c-0.149-0.028-0.237-0.044-0.271-0.044c-0.148,0-0.294,0.14-0.428,0.417
		c-0.131,0.276-0.314,0.43-0.538,0.461c-0.123,0.136-0.397,0.242-0.833,0.317l-1.331,0.923c-0.15,0.06-0.256,0.134-0.314,0.227
		c-0.315,0.026-0.609,0.202-0.879,0.517l-0.61-0.045c-0.15,0-0.297,0.099-0.438,0.293c-0.143,0.195-0.288,0.293-0.439,0.293h-0.135
		l-0.271-0.044l-0.746,0.177c-0.211,0-0.532-0.159-0.972-0.481c-0.433-0.325-0.652-0.604-0.652-0.844l-0.137-1.013
		c0-0.028,0.063-0.136,0.18-0.315c0.122-0.179,0.181-0.311,0.181-0.383c0-0.026-0.018-0.089-0.046-0.178v-0.179
		c0-0.526,0.187-1.154,0.563-1.891v-0.089c0-0.061-0.045-0.091-0.136-0.091c-0.196,0-0.36,0.162-0.493,0.483
		c-0.133,0.324-0.29,0.551-0.468,0.687c-0.177,0.136-0.31,0.249-0.39,0.337c-0.08,0.091-0.152,0.136-0.212,0.136
		c-0.09-0.061-0.193-0.105-0.312-0.136c-0.029-0.028-0.082-0.12-0.157-0.27c-0.076-0.15-0.189-0.274-0.345-0.374
		c-0.154-0.1-0.232-0.266-0.232-0.504c0-0.166,0.218-0.382,0.648-0.654l0.272-0.271c0.685-0.691,1.149-1.058,1.388-1.102
		l0.135-0.315c0.208-0.165,0.465-0.394,0.774-0.686c0.307-0.293,0.577-0.499,0.819-0.62l1.213-1.057
		c0.36-0.331,0.855-0.496,1.485-0.496c0.478,0,0.72,0.307,0.72,0.923c0,0.614-0.109,1.091-0.324,1.427
		c-0.222,0.337-0.354,0.646-0.406,0.923c-0.056,0.277-0.252,0.645-0.596,1.102c-0.345,0.457-0.555,0.795-0.63,1.013
		c-0.073,0.218-0.228,0.518-0.46,0.9c-0.233,0.382-0.349,0.724-0.349,1.024c0,0.15,0.092,0.225,0.27,0.225
		c0.256,0,0.579-0.135,0.972-0.406l0.199-0.094c0.15-0.061,0.3-0.135,0.45-0.225l0.563-0.248c0.104-0.225,0.27-0.375,0.496-0.45
		l0.424-0.225c0.213-0.091,0.471-0.206,0.778-0.349c0.31-0.143,0.505-0.28,0.597-0.417c0.09-0.136,0.206-0.244,0.347-0.327
		c0.144-0.083,0.305-0.214,0.486-0.394c0.387,0,0.929-0.339,1.622-1.014c0.688-0.406,1.336-0.807,1.936-1.203
		c0.6-0.398,0.998-0.687,1.193-0.867c0.089-0.06,0.252-0.141,0.482-0.246c0.233-0.105,0.497-0.274,0.787-0.507
		c0.291-0.231,0.664-0.348,1.113-0.348c0.391,0,0.77,0.146,1.127,0.438c0.358,0.293,0.54,0.581,0.54,0.867l-0.046,1.079
		c0,0.691-0.187,1.276-0.564,1.754c-0.088,0.6-0.193,1.015-0.315,1.24l0.047,0.518C79.476,19.669,79.31,19.819,78.982,20.029z
		 M68.325,37.264l0.111-0.314c0.029-0.107,0.136-0.213,0.316-0.317c0.149-0.644,0.353-1.066,0.608-1.26
		c0-0.331,0.015-0.521,0.045-0.565l0.314-0.291l0.874-1.485c0.092-0.21,0.188-0.407,0.294-0.595
		c0.105-0.186,0.186-0.372,0.248-0.551c0-0.21,0.248-0.623,0.74-1.235v-0.159c0-0.211-0.045-0.315-0.135-0.315
		c-0.088,0.104-0.238,0.21-0.45,0.315l-1.437,1.216c-0.076,0.062-0.277,0.3-0.609,0.721l-0.424,0.451
		c-0.24,0.257-0.426,0.417-0.553,0.483s-0.284,0.285-0.475,0.653c-0.183,0.368-0.347,0.551-0.481,0.551h-0.087
		c-0.016,0-0.091-0.037-0.225-0.112c-0.09,0.047-0.135,0.112-0.135,0.204l0.135,0.541c0,0.059-0.063,0.152-0.181,0.279
		c-0.119,0.124-0.224,0.265-0.304,0.417c-0.082,0.15-0.171,0.239-0.259,0.27c-0.09,0.03-0.255,0.309-0.495,0.834l-0.427,0.225
		c-0.045,0.885-0.322,1.597-0.83,2.139c-0.123,0.238-0.22,0.475-0.293,0.707c-0.076,0.232-0.143,0.38-0.202,0.438
		c-0.091,0.556-0.249,0.876-0.475,0.968c-0.062,0.028-0.091,0.075-0.091,0.137c0,0.089,0.069,0.178,0.203,0.27l0.09,0.089
		c-0.195,0.586-0.293,1.021-0.293,1.306c0,0.061,0.029,0.089,0.091,0.089l0.676-0.338c0.479-0.225,0.803-0.509,0.968-0.855
		l0.36-0.698c0.06-0.092,0.167-0.148,0.317-0.181c0.087-0.313,0.233-0.517,0.436-0.608c0.203-0.09,0.303-0.209,0.303-0.359
		c0-0.148,0.28-0.668,0.843-1.553C67.997,37.882,68.293,37.382,68.325,37.264z"/>
	<path fill="#F4F4F4" d="M102.944,21.064h0.091l0.226,0.091c0.027,0,0.062-0.019,0.089-0.047c0-0.255,0.121-0.474,0.362-0.652
		c0.075-0.286,0.244-0.501,0.507-0.654c0.262-0.15,0.68-0.398,1.252-0.743l0.563-0.496l0.274-0.136l0.18-0.226
		c0.166-0.195,0.325-0.293,0.475-0.293c0.225,0,0.336,0.084,0.336,0.249l-0.201,0.45l0.089,0.743c0,0.27-0.094,0.511-0.279,0.719
		c-0.188,0.212-0.476,0.521-0.869,0.926l-1.148,1.216l-0.607,0.314c-0.149,0.091-0.287,0.196-0.406,0.316l-0.88,0.742
		c0,0.21-0.065,0.369-0.202,0.475h-0.36l-0.177,0.089c-0.105,0.284-0.418,0.563-0.926,0.831l-0.315,0.224
		c-0.105,0.092-0.204,0.136-0.296,0.136l-0.629-0.089l-0.426,0.089c-0.121,0-0.281-0.06-0.483-0.178
		c-0.204-0.122-0.41-0.216-0.621-0.28c-0.212-0.069-0.479-0.346-0.801-0.833c-0.324-0.486-0.499-0.807-0.528-0.956
		c0-0.062-0.034-0.161-0.101-0.303c-0.067-0.141-0.101-0.226-0.101-0.26c0-0.033,0.066-0.181,0.202-0.451v-0.046
		c0-0.046-0.042-0.148-0.124-0.316c-0.082-0.164-0.125-0.368-0.125-0.607c0-0.136-0.045-0.307-0.135-0.518
		c0.123-0.121,0.18-0.212,0.18-0.271s-0.021-0.145-0.067-0.262c-0.045-0.112-0.068-0.199-0.068-0.26l0.136-1.102l-0.09-0.562
		l0.046-0.54c0-0.315-0.136-0.474-0.405-0.474c-0.119,0-0.269,0.082-0.448,0.247l-0.157,0.046c-0.402,0.194-0.688,0.355-0.852,0.483
		c-0.166,0.127-0.339,0.192-0.516,0.192c-0.092,0.09-0.263,0.172-0.52,0.246l-0.177,0.136c-0.063,0.061-0.181,0.149-0.359,0.27
		c0,0.044-0.28,0.297-0.841,0.752c-0.563,0.459-1.066,0.889-1.516,1.296c-0.448,0.405-0.773,0.625-0.976,0.663
		c-0.201,0.038-0.304,0.228-0.304,0.575c0,0.063-0.132,0.18-0.402,0.36c-0.028,0-0.185,0.166-0.472,0.495
		c-0.236-0.179-0.375-0.27-0.404-0.27c-0.194,0-0.339,0.249-0.425,0.742c-0.091,0.192-0.332,0.315-0.725,0.359
		c-0.027,0.017-0.081,0.128-0.158,0.339l-0.089,0.089h-0.226c-0.03,0-0.136,0.086-0.316,0.261c-0.179,0.173-0.338,0.28-0.475,0.325
		c-0.194,0.406-0.359,0.609-0.495,0.609c-0.062,0-0.147-0.027-0.261-0.089c-0.112-0.063-0.252-0.114-0.418-0.159
		s-0.348-0.228-0.551-0.551c-0.204-0.324-0.304-0.598-0.304-0.821c0-1.665,0.325-2.575,0.97-2.723l0.045-0.094v-0.177
		c0-0.196,0.084-0.334,0.258-0.418c0.175-0.082,0.35-0.249,0.53-0.496c0.179-0.249,0.3-0.384,0.36-0.418h0.292
		c0.062,0,0.091-0.157,0.091-0.473c0-0.089,0.037-0.174,0.113-0.246c0.075-0.075,0.119-0.183,0.134-0.326
		c0.018-0.143,0.125-0.376,0.327-0.698c0.202-0.323,0.302-0.515,0.302-0.574l-0.049-0.09c-0.378,0.346-0.645,0.533-0.81,0.564
		c-0.169,0.029-0.391,0.248-0.677,0.651l-0.359-0.067c-0.632,0.465-1.023,0.726-1.176,0.787c-0.148,0.061-0.315,0.234-0.497,0.52
		c0,0.089-0.053,0.148-0.158,0.178s-0.3,0.15-0.584,0.361h-0.135c-0.378,0-0.565-0.27-0.565-0.811l0.473-1.283
		c0.135-0.404,0.453-0.746,0.955-1.023c0.501-0.278,0.926-0.543,1.272-0.799c0.341-0.255,0.687-0.39,1.03-0.405l0.159-0.225
		c0.51-0.196,0.854-0.501,1.031-0.923c0.181-0.419,0.428-0.629,0.742-0.629c0.822,0,1.455,0.302,1.889,0.911
		c0.432,0.607,0.652,1.091,0.652,1.451l0.045,0.607c0,0.211-0.045,0.502-0.136,0.878c-0.181,0.271-0.27,0.472-0.27,0.607
		c0,0.121,0.075,0.181,0.225,0.181c0.091,0,0.21-0.064,0.36-0.192c0.147-0.127,0.32-0.244,0.504-0.348
		c0.188-0.104,0.297-0.195,0.326-0.27c0.15-0.361,0.413-0.607,0.784-0.742c0.376-0.135,0.609-0.249,0.698-0.338l0.226-0.181
		l0.187-0.328c0.404-0.181,0.671-0.345,0.807-0.496c0.135-0.151,0.315-0.249,0.541-0.293c0.224-0.044,0.478-0.179,0.765-0.404
		l0.338-0.09l0.315-0.179c0.029-0.031,0.119-0.068,0.268-0.113c0.15-0.047,0.374-0.124,0.666-0.236
		c0.289-0.113,0.488-0.17,0.596-0.17c0.764,0,1.367,0.308,1.811,0.924c0.44,0.614,0.662,1.109,0.662,1.484l-0.046,0.405l0.09,0.607
		v0.089l-0.181,1.237l0.045,0.427c0,0.703-0.148,1.19-0.45,1.46c-0.075,0.03-0.112,0.106-0.112,0.225v0.204l0.451,0.944
		c0.135,0.33,0.24,0.495,0.315,0.495l0.724-0.203c0.211-0.06,0.379-0.218,0.52-0.475c0.122-0.061,0.33-0.237,0.629-0.538
		C102.605,21.182,102.748,21.064,102.944,21.064z"/>
	<path fill="#F4F4F4" d="M124.158,19.669l0.359-0.314c0.224,0,0.357-0.101,0.404-0.302c0.045-0.204,0.206-0.368,0.481-0.486
		c0.274-0.121,0.534-0.364,0.774-0.731c0.239-0.368,0.485-0.551,0.74-0.551c0.09,0,0.193,0.076,0.312,0.224
		c0.123,0.15,0.182,0.271,0.182,0.361c0,0.496-0.15,1.004-0.45,1.531l-0.093,0.629l-0.157,0.292
		c-0.226,0.122-0.373,0.247-0.439,0.38c-0.065,0.136-0.243,0.302-0.525,0.497l-0.225,0.315c-0.331,0.105-0.551,0.278-0.662,0.519
		c-0.114,0.24-0.272,0.376-0.475,0.405c-0.202,0.028-0.423,0.181-0.663,0.45c-0.149,0.076-0.33,0.143-0.541,0.202l-0.045,0.227
		c-0.149,0.147-0.384,0.269-0.709,0.359c-0.322,0.091-0.563,0.176-0.72,0.261c-0.159,0.083-0.268,0.124-0.326,0.124
		c-0.285,0-0.548-0.059-0.788-0.172c-0.236-0.11-0.485-0.182-0.737-0.214c-0.09-0.091-0.144-0.188-0.159-0.293
		c-0.018-0.104-0.088-0.243-0.225-0.418c-0.134-0.174-0.203-0.408-0.203-0.708l0.092-0.426c0-0.062-0.038-0.135-0.115-0.226
		c-0.075-0.088-0.111-0.164-0.111-0.224c0-0.061,0.017-0.104,0.046-0.138c0.028-0.027,0.045-0.072,0.045-0.133
		c0-0.075-0.017-0.157-0.045-0.248c-0.029-0.09-0.046-0.167-0.046-0.226l0.135-1.1c0-0.093-0.028-0.137-0.089-0.137
		s-0.17,0.076-0.324,0.226c-0.16,0.15-0.342,0.226-0.551,0.226c-0.123,0.089-0.222,0.275-0.295,0.563
		c-0.124,0.15-0.271,0.286-0.449,0.406l-0.092,0.136c-0.03,0.105-0.143,0.19-0.338,0.26c-0.196,0.067-0.33,0.152-0.405,0.26
		l-0.226,0.225l-0.426-0.047c-0.03,0.03-0.112,0.165-0.25,0.394c-0.135,0.232-0.306,0.426-0.518,0.576l-1.709,1.396
		c-0.18,0.121-0.442,0.268-0.786,0.45l-0.136,0.132c-1.2,0.795-2.049,1.193-2.541,1.193c-0.407,0-0.877-0.113-1.42-0.338
		c-0.54-0.225-0.832-0.496-0.877-0.811l-0.225-0.926c-0.136-0.209-0.203-0.499-0.203-0.874c0-0.18,0.016-0.3,0.045-0.362v-0.135
		l-0.045-0.74c0-0.18,0.143-0.27,0.426-0.27l-0.047-0.61c0-0.061,0.133-0.296,0.394-0.708c0.263-0.413,0.439-0.652,0.53-0.708
		l0.225-0.293c-0.017-0.181,0.089-0.373,0.316-0.574c0.225-0.204,0.405-0.41,0.538-0.62c0.136-0.209,0.392-0.443,0.77-0.698
		l0.675-0.676c0.526-0.525,1.098-0.944,1.713-1.258c0.09-0.031,0.273-0.181,0.554-0.45c0.274-0.271,0.59-0.47,0.942-0.598
		c0.356-0.126,0.699-0.288,1.036-0.483c0.339-0.194,0.604-0.293,0.802-0.293h0.18c0.062,0,0.46-0.188,1.192-0.563h0.136
		c0.063,0,0.203,0.061,0.427,0.179h0.044l0.36-0.179c0.061-0.029,0.137-0.044,0.225-0.044c0.932,0,1.441,0.645,1.532,1.936
		c0.029,0.27,0.104,0.403,0.226,0.403c0.149,0,0.366-0.273,0.642-0.82c0.276-0.547,0.867-0.82,1.768-0.82
		c0.645,0,0.967,0.413,0.967,1.238c0,0.975-0.434,1.898-1.303,2.768c-0.061,0.119-0.104,0.255-0.137,0.404l-0.314,0.922v0.045
		c0,0.09-0.063,0.215-0.189,0.373c-0.127,0.158-0.19,0.297-0.19,0.419l0.045,0.563l-0.089,0.629c0,0.282,0.054,0.472,0.158,0.562
		c0.476-0.119,0.824-0.318,1.041-0.596c0.22-0.274,0.373-0.429,0.46-0.46l0.224-0.09C123.824,20.004,123.979,19.819,124.158,19.669z
		 M116.687,19.669c0.06-0.331,0.243-0.582,0.551-0.752c0.306-0.176,0.492-0.351,0.549-0.531c0.286-0.209,0.696-0.583,1.228-1.124
		c0.529-0.54,0.798-0.87,0.798-0.99c0-0.044-0.029-0.067-0.089-0.067h-0.047l-0.18,0.113l-0.406-0.046l-0.425,0.046l-0.313-0.157
		l-0.293,0.044l-0.451-0.089c-0.24,0-0.446,0.049-0.622,0.146c-0.174,0.097-0.502,0.206-0.99,0.327
		c-0.485,0.12-0.925,0.326-1.316,0.619s-0.675,0.438-0.855,0.438c-0.105,0.225-0.459,0.548-1.059,0.969
		c-0.36,0.12-0.594,0.381-0.699,0.786c-0.391,0.315-0.584,0.497-0.584,0.542l-0.158,0.38c-0.119,0.103-0.27,0.19-0.451,0.26
		c-0.179,0.068-0.284,0.225-0.313,0.473c-0.029,0.246-0.132,0.472-0.304,0.675c-0.174,0.202-0.262,0.365-0.262,0.483
		c0,0.735,0.143,1.102,0.427,1.102c0.121,0,0.372-0.076,0.755-0.235c0.38-0.157,0.604-0.266,0.662-0.325
		c0.06-0.062,0.181-0.121,0.361-0.18l0.426-0.227c0.061-0.061,0.127-0.098,0.203-0.109c0.075-0.017,0.147-0.063,0.227-0.148
		c0.072-0.08,0.208-0.173,0.405-0.267c0.192-0.1,0.342-0.229,0.45-0.394c0.254-0.15,0.666-0.382,1.234-0.7l0.475-0.359
		c0.328-0.15,0.532-0.277,0.607-0.38C116.312,19.879,116.465,19.773,116.687,19.669z"/>
</g>
</svg>
